# xmcd
#
# Track frame offsets: 
#        150
#        14510
#        27550
#        39790
#        56780
#        72662
#        91445
#        106060
#        117360
#
# Disc length: 1831 seconds
#
# Revision: 1
# Processed by: cddbd v1.5PL3 Copyright (c) Steve Scherf et al.
# Submitted via: ExactAudioCopy v0.95a5
#
DISCID=78072509
DTITLE=Rocky Hill - Midnight Creepers
DYEAR=1994
DGENRE=Blues
TTITLE0=Stop Breaking Down
TTITLE1=Where The Blues Come From
TTITLE2=Kiss My Ass
TTITLE3=Sweet Blood Call
TTITLE4=I Can Tell
TTITLE5=Bad Girl Blues
TTITLE6=My Ship Came In
TTITLE7=Lightning Struck Out
TTITLE8=Little Boy Blue
EXTD=YEAR: 1994
EXTT0=
EXTT1=
EXTT2=
EXTT3=
EXTT4=
EXTT5=
EXTT6=
EXTT7=
EXTT8=
PLAYORDER=
